:FULLY-SPECIFIED
:FORCE-ALL-JOINTS-BE-3DOF
:DEGREES
510
root -5.03475 15.0347 -42.5118 365.428 9.57767 347.4
lfemur -58.0351 36.1235 -19.7227
ltibia 72.9544 0 0
lfoot -19.8583 30.0731 0
ltoes 3.20013 0 0
rfemur -19.0859 -15.2656 9.56124
rtibia 58.8823 0 0
rfoot -7.44503 -25.294 0
rtoes 9.80199 0 0
lowerback 15.8682 0.403908 -5.22469
upperback -1.32702 -0.0799554 3.78543
thorax -10.3751 0.386818 7.16358
lowerneck 4.9704 -15.1832 -17.0484
upperneck 2.38784 -21.958 20.0785
head 4.09838 -11.1537 7.67616
lclavicle -7.96788e-15 -1.45408e-14 0
lhumerus 7.27081 -70.5144 88.0631
lradius 81.5763 0 0
lwrist 16.3469 0 0
lhand -4.80862 38.5261 0
lfingers 7.12502 0 0
lthumb 20.977 67.4078 0
rclavicle -7.96788e-15 -1.45408e-14 0
rhumerus 79.2574 34.8629 -13.438
rradius 113.166 0 0
rwrist -24.5201 0 0
rhand -2.28927 -23.8593 0
rfingers 7.12502 0 0
rthumb 23.3608 -52.0988 0
511
root -5.15753 15.0304 -42.6088 365.763 2.83789 346.868
lfemur -58.2013 37.1361 -16.4172
ltibia 72.8849 0 0
lfoot -17.6546 29.4863 0
ltoes 1.41538 0 0
rfemur -19.2006 -18.2928 8.68737
rtibia 56.2121 0 0
rfoot -7.78713 -25.6336 0
rtoes 9.11323 0 0
lowerback 15.9714 0.840093 -5.10742
upperback -1.37714 0.49909 3.57664
thorax -10.5923 0.660009 6.72703
lowerneck 4.27854 -14.775 -17.0438
upperneck 3.51975 -21.4319 19.4699
head 4.36587 -10.8348 7.47613
lclavicle -3.83158e-15 -1.73702e-14 0
lhumerus 6.81211 -71.0799 87.6371
lradius 81.7491 0 0
lwrist 14.5609 0 0
lhand -5.18756 38.3534 0
lfingers 7.12502 0 0
lthumb 20.613 67.2763 0
rclavicle -3.83158e-15 -1.73702e-14 0
rhumerus 80.9604 35.8617 -12.462
rradius 113.15 0 0
rwrist -22.8573 0 0
rhand -5.82935 -25.6975 0
rfingers 7.12502 0 0
rthumb 19.9738 -54.4507 0
512
root -5.28031 15.026 -42.7058 366.203 -5.37375 346.2
lfemur -58.5915 38.4908 -12.5154
ltibia 72.8064 0 0
lfoot -14.97 28.7725 0
ltoes -0.667675 0 0
rfemur -19.0102 -21.9704 7.57277
rtibia 52.9234 0 0
rfoot -8.15009 -26.097 0
rtoes 8.40467 0 0
lowerback 16.0591 1.35909 -4.94483
upperback -1.45244 1.19516 3.33732
thorax -10.8503 0.987904 6.20118
lowerneck 3.45964 -14.2981 -17.0473
upperneck 4.87511 -20.8215 18.7612
head 4.69201 -10.4634 7.24165
lclavicle 1.19271e-15 -2.06736e-14 0
lhumerus 6.47275 -71.8747 87.0602
lradius 81.8909 0 0
lwrist 12.4266 0 0
lhand -5.62379 38.138 0
lfingers 7.12502 0 0
lthumb 20.194 67.1083 0
rclavicle 1.19271e-15 -2.06736e-14 0
rhumerus 83.1298 37.0775 -11.213
rradius 113.098 0 0
rwrist -20.8437 0 0
rhand -10.0387 -27.8129 0
rfingers 7.12502 0 0
rthumb 15.9464 -57.1765 0
513
root -5.32113 15.0128 -42.6997 366.063 -7.61693 346.444
lfemur -57.2817 37.9241 -11.4795
ltibia 72.5597 0 0
lfoot -14.719 28.3126 0
ltoes -1.57711 0 0
rfemur -19.8332 -22.4185 7.40701
rtibia 52.8579 0 0
rfoot -8.2413 -25.275 0
rtoes 7.83044 0 0
lowerback 16.1558 1.44336 -5.05116
upperback -1.4162 1.27202 3.25563
thorax -10.8787 1.02736 6.15392
lowerneck 3.17786 -14.1312 -17.0362
upperneck 5.24206 -20.5732 18.4896
head 4.77422 -10.3278 7.16131
lclavicle 9.69703e-16 -2.06593e-14 0
lhumerus 4.38417 -70.4174 87.8396
lradius 82.5393 0 0
lwrist 13.6059 0 0
lhand -6.23477 38.4485 0
lfingers 7.12502 0 0
lthumb 19.6058 67.4657 0
rclavicle 9.69703e-16 -2.06593e-14 0
rhumerus 80.827 37.0194 -12.3587
rradius 113.207 0 0
rwrist -20.9436 0 0
rhand -9.90824 -27.8971 0
rfingers 7.12502 0 0
rthumb 16.0697 -57.2277 0
514
root -5.36196 14.9997 -42.6937 365.973 -8.93071 346.599
lfemur -56.4785 37.568 -10.8811
ltibia 72.4088 0 0
lfoot -14.5902 28.0366 0
ltoes -2.11247 0 0
rfemur -20.3246 -22.6606 7.3105
rtibia 52.8381 0 0
rfoot -8.28592 -24.7636 0
rtoes 7.48472 0 0
lowerback 16.2128 1.4904 -5.1155
upperback -1.39387 1.31346 3.20831
thorax -10.8937 1.04879 6.12883
lowerneck 3.01238 -14.0333 -17.0297
upperneck 5.45567 -20.4267 18.3296
head 4.82213 -10.2482 7.11415
lclavicle 8.91926e-16 -2.06319e-14 0
lhumerus 3.10878 -69.5117 88.3209
lradius 82.9361 0 0
lwrist 14.3598 0 0
lhand -6.60029 38.6386 0
lfingers 7.12502 0 0
lthumb 19.2539 67.6832 0
rclavicle 8.91926e-16 -2.06319e-14 0
rhumerus 79.3834 36.97 -13.0782
rradius 113.27 0 0
rwrist -21.0252 0 0
rhand -9.77812 -27.9198 0
rfingers 7.12502 0 0
rthumb 16.1932 -57.2227 0
515
root -5.40278 14.9865 -42.6876 365.908 -9.58475 346.704
lfemur -55.9917 37.3322 -10.6035
ltibia 72.3183 0 0
lfoot -14.5701 27.8829 0
ltoes -2.38556 0 0
rfemur -20.592 -22.7321 7.26381
rtibia 52.8733 0 0
rfoot -8.28685 -24.4364 0
rtoes 7.28987 0 0
lowerback 16.2421 1.50818 -5.15253
upperback -1.38006 1.32544 3.18603
thorax -10.8974 1.0554 6.12258
lowerneck 2.92893 -13.9843 -17.0265
upperneck 5.55886 -20.3514 18.2476
head 4.8454 -10.2082 7.09043
lclavicle 9.81005e-16 -2.05723e-14 0
lhumerus 2.3477 -68.9345 88.6205
lradius 83.1747 0 0
lwrist 14.888 0 0
lhand -6.80084 38.753 0
lfingers 7.12502 0 0
lthumb 19.0607 67.8113 0
rclavicle 9.81005e-16 -2.05723e-14 0
rhumerus 78.4353 36.908 -13.5537
rradius 113.302 0 0
rwrist -21.1218 0 0
rhand -9.58344 -27.8666 0
rfingers 7.12502 0 0
rthumb 16.3788 -57.1355 0
516
root -5.4436 14.9733 -42.6816 365.844 -9.84867 346.799
lfemur -55.6306 37.1266 -10.5298
ltibia 72.2527 0 0
lfoot -14.6452 27.7902 0
ltoes -2.50818 0 0
rfemur -20.743 -22.6681 7.24755
rtibia 52.9727 0 0
rfoot -8.24698 -24.1671 0
rtoes 7.16825 0 0
lowerback 16.2556 1.50473 -5.17691
upperback -1.3694 1.31393 3.17945
thorax -10.8917 1.05041 6.13187
lowerneck 2.89321 -13.9641 -17.0252
upperneck 5.59455 -20.3163 18.21
head 4.85369 -10.1912 7.08039
lclavicle 1.25856e-15 -2.04615e-14 0
lhumerus 1.80207 -68.463 88.855
lradius 83.3486 0 0
lwrist 15.3901 0 0
lhand -6.9169 38.8367 0
lfingers 7.12502 0 0
lthumb 18.9488 67.9006 0
rclavicle 1.25856e-15 -2.04615e-14 0
rhumerus 77.6187 36.8125 -13.9673
rradius 113.315 0 0
rwrist -21.2666 0 0
rhand -9.25928 -27.7232 0
rfingers 7.12502 0 0
rthumb 16.6884 -56.9403 0
517
root -5.48442 14.9601 -42.6755 365.756 -9.99214 346.924
lfemur -55.205 36.8607 -10.5432
ltibia 72.1764 0 0
lfoot -14.8021 27.6971 0
ltoes -2.59216 0 0
rfemur -20.8852 -22.5039 7.2423
rtibia 53.1455 0 0
rfoot -8.16923 -23.8295 0
rtoes 7.0422 0 0
lowerback 16.2654 1.48802 -5.20333
upperback -1.35653 1.28487 3.17922
thorax -10.8786 1.03701 6.15338
lowerneck 2.87096 -13.9524 -17.0244
upperneck 5.60566 -20.2908 18.1832
head 4.85666 -10.1808 7.07428
lclavicle 1.74622e-15 -2.02802e-14 0
lhumerus 1.17301 -67.8739 89.1407
lradius 83.5515 0 0
lwrist 16.0659 0 0
lhand -7.02897 38.9344 0
lfingers 7.12502 0 0
lthumb 18.8405 68.0014 0
rclavicle 1.74622e-15 -2.02802e-14 0
rhumerus 76.57 36.6621 -14.5012
rradius 113.322 0 0
rwrist -21.4929 0 0
rhand -8.74072 -27.4754 0
rfingers 7.12502 0 0
rthumb 17.1839 -56.6112 0
518
root -5.52525 14.947 -42.6695 365.62 -10.2848 347.12
lfemur -54.5242 36.4444 -10.5268
ltibia 72.0541 0 0
lfoot -15.0271 27.5421 0
ltoes -2.7493 0 0
rfemur -21.126 -22.2749 7.22866
rtibia 53.4008 0 0
rfoot -8.05647 -23.2971 0
rtoes 6.83409 0 0
lowerback 16.2833 1.46606 -5.24645
upperback -1.33605 1.24424 3.17602
thorax -10.8601 1.01841 6.1838
lowerneck 2.82789 -13.9291 -17.023
upperneck 5.63509 -20.244 18.1339
head 4.86398 -10.1606 7.06234
lclavicle 2.46562e-15 -2.00094e-14 0
lhumerus 0.161659 -66.9444 89.5941
lradius 83.8767 0 0
lwrist 17.115 0 0
lhand -7.21753 39.091 0
lfingers 7.12502 0 0
lthumb 18.6584 68.1643 0
rclavicle 2.46562e-15 -2.00094e-14 0
rhumerus 74.9253 36.4359 -15.3376
rradius 113.337 0 0
rwrist -21.8337 0 0
rhand -7.96287 -27.1087 0
rfingers 7.12502 0 0
rthumb 17.927 -56.1221 0
519
root -5.56607 14.9338 -42.6634 365.411 -10.9963 347.425
lfemur -53.398 35.7873 -10.3637
ltibia 71.8502 0 0
lfoot -15.307 27.2638 0
ltoes -3.09142 0 0
rfemur -21.5731 -22.0161 7.18721
rtibia 53.7479 0 0
rfoot -7.91162 -22.4436 0
rtoes 6.46628 0 0
lowerback 16.3214 1.44686 -5.32096
upperback -1.30261 1.19799 3.16051
thorax -10.8382 0.997821 6.21981
lowerneck 2.72972 -13.8741 -17.0194
upperneck 5.72577 -20.1452 18.0283
head 4.8853 -10.114 7.03483
lclavicle 3.43836e-15 -1.963e-14 0
lhumerus -1.53086 -65.4514 90.3317
lradius 84.4178 0 0
lwrist 18.7372 0 0
lhand -7.56307 39.3513 0
lfingers 7.12502 0 0
lthumb 18.3249 68.4398 0
rclavicle 3.43836e-15 -1.963e-14 0
rhumerus 72.3208 36.1126 -16.6586
rradius 113.372 0 0
rwrist -22.3225 0 0
rhand -6.86079 -26.6089 0
rfingers 7.12502 0 0
rthumb 18.9798 -55.4472 0
520
root -5.60689 14.9206 -42.6573 365.106 -12.3962 347.881
lfemur -51.6358 34.7992 -9.9372
ltibia 71.5292 0 0
lfoot -15.628 26.8007 0
ltoes -3.73031 0 0
rfemur -22.3341 -21.763 7.09855
rtibia 54.196 0 0
rfoot -7.73757 -21.1428 0
rtoes 5.8611 0 0
lowerback 16.3916 1.4384 -5.44152
upperback -1.25082 1.15209 3.12334
thorax -10.8147 0.978447 6.25811
lowerneck 2.54217 -13.7672 -17.0125
upperneck 5.92061 -19.9636 17.8329
head 4.9303 -10.0247 6.982
lclavicle 4.68608e-15 -1.91227e-14 0
lhumerus -4.20341 -63.1719 91.4698
lradius 85.2683 0 0
lwrist 21.132 0 0
lhand -8.14606 39.7603 0
lfingers 7.12502 0 0
lthumb 17.7626 68.8783 0
rclavicle 4.68608e-15 -1.91227e-14 0
rhumerus 68.3929 35.6712 -18.6464
rradius 113.44 0 0
rwrist -22.9923 0 0
rhand -5.36958 -25.9617 0
rfingers 7.12502 0 0
rthumb 20.404 -54.5606 0
